<svg width="35" height="211" viewBox="0 0 35 211" fill="none" xmlns="http://www.w3.org/2000/svg">
<path d="M27.4676 3.60153C24.045 3.60153 20.92 4.44788 18.0926 6.14059C15.2653 7.8147 13.0052 10.0654 11.3125 12.8928C9.63839 15.7202 8.80134 18.8545 8.80134 22.2957C8.80134 25.7369 9.63839 28.8712 11.3125 31.6986C13.0052 34.526 15.2653 36.7861 18.0926 38.4788C20.92 40.1529 24.045 40.9899 27.4676 40.9899H29.058V44.1428H27.4676C24.5472 44.1428 21.7571 43.5941 19.0971 42.4966C16.4557 41.3991 14.0934 39.818 12.01 37.7533C9.94531 35.67 8.36421 33.3076 7.26674 30.6663C6.16927 28.0063 5.62053 25.2161 5.62053 22.2957C5.62053 19.3753 6.16927 16.5945 7.26674 13.9531C8.36421 11.2931 9.94531 8.92147 12.01 6.83814C14.0934 4.7734 16.4557 3.1923 19.0971 2.09483C21.7571 0.997361 24.5472 0.448626 27.4676 0.448626H29.058V3.60153H27.4676ZM5.62053 85.6529L7.90848 83.4486L29.058 105.296L7.90848 127.143L5.62053 124.939L24.6496 105.296L5.62053 85.6529ZM17.3393 206.99C19.8318 206.99 22.1105 206.153 24.1752 204.479C26.24 202.786 27.8862 200.526 29.1138 197.699C30.3415 194.871 30.9554 191.737 30.9554 188.296C30.9554 184.855 30.3415 181.72 29.1138 178.893C27.8862 176.065 26.24 173.815 24.1752 172.141C22.1105 170.448 19.8318 169.602 17.3393 169.602C14.8467 169.602 12.5681 170.448 10.5033 172.141C8.43862 173.815 6.79241 176.065 5.56473 178.893C4.33705 181.72 3.72321 184.855 3.72321 188.296C3.72321 191.737 4.33705 194.871 5.56473 197.699C6.79241 200.526 8.43862 202.786 10.5033 204.479C12.5681 206.153 14.8467 206.99 17.3393 206.99ZM29.3371 173.006C32.5179 177.451 34.1083 182.548 34.1083 188.296C34.1083 194.043 32.5179 199.14 29.3371 203.586C27.7374 205.706 25.9051 207.334 23.8404 208.469C21.7943 209.585 19.6272 210.143 17.3393 210.143C15.0513 210.143 12.875 209.585 10.8103 208.469C8.76414 207.334 6.94122 205.706 5.34152 203.586C2.16071 199.14 0.570312 194.043 0.570312 188.296C0.570312 182.548 2.16071 177.451 5.34152 173.006C6.94122 170.885 8.76414 169.267 10.8103 168.151C12.875 167.016 15.0513 166.449 17.3393 166.449C19.6272 166.449 21.7943 167.016 23.8404 168.151C25.9051 169.267 27.7374 170.885 29.3371 173.006Z" fill="white"/>
</svg>
