<svg width="36" height="35" viewBox="0 0 36 35" fill="none" xmlns="http://www.w3.org/2000/svg">
<path d="M24.8 11.2C27.5052 11.2 30.0996 12.2746 32.0125 14.1875C33.9253 16.1003 35 18.6947 35 21.4V33.3H28.2V21.4C28.2 20.4982 27.8418 19.6334 27.2041 18.9958C26.5665 18.3582 25.7017 18 24.8 18C23.8982 18 23.0334 18.3582 22.3958 18.9958C21.7582 19.6334 21.4 20.4982 21.4 21.4V33.3H14.6V21.4C14.6 18.6947 15.6746 16.1003 17.5875 14.1875C19.5004 12.2746 22.0948 11.2 24.8 11.2V11.2Z" stroke="white" stroke-width="2" stroke-linecap="round" stroke-linejoin="round"/>
<path d="M7.8 12.9H1V33.3H7.8V12.9Z" stroke="white" stroke-width="2" stroke-linecap="round" stroke-linejoin="round"/>
<path d="M4.4 7.8C6.27777 7.8 7.8 6.27777 7.8 4.4C7.8 2.52223 6.27777 1 4.4 1C2.52223 1 1 2.52223 1 4.4C1 6.27777 2.52223 7.8 4.4 7.8Z" stroke="white" stroke-width="2" stroke-linecap="round" stroke-linejoin="round"/>
</svg>
