<svg width="46" height="505" viewBox="0 0 46 505" fill="none" xmlns="http://www.w3.org/2000/svg">
<path d="M27.1367 149.27C27.6445 149.27 28.0977 149.184 28.4961 149.012C28.9023 148.84 29.2617 148.555 29.5742 148.156C29.8945 147.766 30.1914 147.25 30.4648 146.609C30.7383 145.969 31.0039 145.18 31.2617 144.242C31.4961 143.383 31.75 142.605 32.0234 141.91C32.3047 141.223 32.625 140.633 32.9844 140.141C33.3437 139.656 33.7695 139.285 34.2617 139.027C34.7617 138.77 35.3516 138.641 36.0312 138.641C36.6875 138.641 37.2773 138.781 37.8008 139.062C38.3242 139.344 38.7695 139.738 39.1367 140.246C39.5117 140.762 39.7969 141.363 39.9922 142.051C40.1953 142.746 40.2969 143.504 40.2969 144.324C40.2969 145.473 40.0781 146.477 39.6406 147.336C39.2109 148.195 38.6133 148.867 37.8477 149.352C37.0898 149.836 36.2187 150.078 35.2344 150.078L35.2344 149.129C36.0391 149.129 36.7578 148.93 37.3906 148.531C38.0234 148.141 38.5195 147.586 38.8789 146.867C39.2461 146.156 39.4297 145.309 39.4297 144.324C39.4297 143.309 39.2734 142.445 38.9609 141.734C38.6484 141.031 38.2344 140.496 37.7187 140.129C37.2109 139.77 36.6562 139.59 36.0547 139.59C35.625 139.59 35.2227 139.668 34.8477 139.824C34.4727 139.988 34.1289 140.254 33.8164 140.621C33.5039 140.996 33.207 141.5 32.9258 142.133C32.6523 142.773 32.3867 143.57 32.1289 144.523C31.9023 145.398 31.6445 146.184 31.3555 146.879C31.0742 147.582 30.7422 148.184 30.3594 148.684C29.9766 149.184 29.5234 149.566 29 149.832C28.4766 150.098 27.8633 150.23 27.1602 150.23C26.4648 150.23 25.8437 150.082 25.2969 149.785C24.7578 149.488 24.2969 149.074 23.9141 148.543C23.5391 148.02 23.2539 147.402 23.0586 146.691C22.8633 145.988 22.7656 145.23 22.7656 144.418C22.7656 143.676 22.8555 142.93 23.0352 142.18C23.2148 141.437 23.5039 140.758 23.9023 140.141C24.3008 139.523 24.8242 139.027 25.4727 138.652C26.1211 138.277 26.9102 138.09 27.8398 138.09L27.8398 139.039C27.043 139.039 26.3711 139.203 25.8242 139.531C25.2852 139.859 24.8555 140.289 24.5352 140.82C24.2148 141.352 23.9844 141.93 23.8437 142.555C23.7031 143.187 23.6328 143.809 23.6328 144.418C23.6328 145.371 23.7773 146.211 24.0664 146.937C24.3633 147.672 24.7734 148.242 25.2969 148.648C25.8281 149.062 26.4414 149.27 27.1367 149.27ZM23.6211 158.322C23.6211 158.954 23.7383 159.552 23.9727 160.115C24.207 160.685 24.5625 161.157 25.0391 161.532C25.5234 161.915 26.1367 162.13 26.8789 162.177L26.8789 163.091C26.0352 163.052 25.3047 162.81 24.6875 162.365C24.0781 161.919 23.6055 161.345 23.2695 160.642C22.9336 159.939 22.7656 159.165 22.7656 158.322C22.7656 157.478 22.9219 156.724 23.2344 156.06C23.5469 155.404 23.9883 154.853 24.5586 154.407C25.1289 153.962 25.7969 153.622 26.5625 153.388C27.3359 153.161 28.1797 153.048 29.0937 153.048L29.5859 153.048C30.5 153.048 31.3398 153.161 32.1055 153.388C32.8789 153.622 33.5508 153.962 34.1211 154.407C34.6914 154.853 35.1328 155.4 35.4453 156.048C35.7578 156.704 35.9141 157.454 35.9141 158.298C35.9141 159.15 35.7383 159.931 35.3867 160.642C35.043 161.353 34.5391 161.927 33.875 162.365C33.2187 162.81 32.4141 163.052 31.4609 163.091L31.4609 162.177C32.2422 162.138 32.8984 161.939 33.4297 161.579C33.9609 161.22 34.3633 160.751 34.6367 160.173C34.918 159.595 35.0586 158.97 35.0586 158.298C35.0586 157.548 34.9141 156.9 34.625 156.353C34.3359 155.806 33.9375 155.357 33.4297 155.005C32.9297 154.654 32.3477 154.396 31.6836 154.232C31.0273 154.068 30.3281 153.986 29.5859 153.986L29.0937 153.986C28.3437 153.986 27.6367 154.068 26.9727 154.232C26.3164 154.396 25.7383 154.654 25.2383 155.005C24.7383 155.357 24.3437 155.806 24.0547 156.353C23.7656 156.907 23.6211 157.564 23.6211 158.322ZM33.5234 167.772L23 167.772L23 166.846L35.6797 166.846L35.6797 167.76L33.5234 167.772ZM35.7734 172.6L34.9297 172.542C34.9531 172.401 34.9727 172.26 34.9883 172.12C35.0039 171.979 35.0117 171.831 35.0117 171.674C35.0117 171.003 34.8789 170.413 34.6133 169.905C34.3477 169.405 33.9844 168.983 33.5234 168.639C33.0625 168.303 32.5273 168.049 31.918 167.877C31.3086 167.706 30.6562 167.616 29.9609 167.608L29.8672 167.151C30.7344 167.151 31.5352 167.241 32.2695 167.42C33.0039 167.608 33.6445 167.889 34.1914 168.264C34.7383 168.639 35.1602 169.112 35.457 169.682C35.7617 170.253 35.9141 170.924 35.9141 171.698C35.9141 171.885 35.8984 172.057 35.8672 172.213C35.8437 172.37 35.8125 172.499 35.7734 172.6ZM29.1172 174.504L29.5625 174.504C30.4922 174.504 31.3437 174.637 32.1172 174.902C32.8906 175.176 33.5586 175.558 34.1211 176.051C34.6914 176.543 35.1328 177.129 35.4453 177.808C35.7578 178.496 35.9141 179.258 35.9141 180.094C35.9141 180.93 35.7578 181.691 35.4453 182.379C35.1328 183.066 34.6914 183.656 34.1211 184.148C33.5586 184.648 32.8906 185.031 32.1172 185.297C31.3437 185.562 30.4922 185.695 29.5625 185.695L29.1172 185.695C28.1875 185.695 27.3359 185.562 26.5625 185.297C25.7891 185.031 25.1172 184.652 24.5469 184.16C23.9844 183.668 23.5469 183.078 23.2344 182.39C22.9219 181.711 22.7656 180.953 22.7656 180.117C22.7656 179.273 22.9219 178.508 23.2344 177.82C23.5469 177.14 23.9844 176.551 24.5469 176.051C25.1172 175.558 25.7891 175.176 26.5625 174.902C27.3359 174.637 28.1875 174.504 29.1172 174.504ZM29.5625 175.441L29.1172 175.441C28.3828 175.441 27.6836 175.543 27.0195 175.746C26.3633 175.957 25.7773 176.262 25.2617 176.66C24.7539 177.058 24.3516 177.547 24.0547 178.125C23.7656 178.703 23.6211 179.367 23.6211 180.117C23.6211 180.851 23.7656 181.508 24.0547 182.086C24.3516 182.664 24.7539 183.148 25.2617 183.539C25.7773 183.937 26.3633 184.238 27.0195 184.441C27.6836 184.652 28.3828 184.758 29.1172 184.758L29.5625 184.758C30.2812 184.758 30.9687 184.652 31.625 184.441C32.2812 184.238 32.8672 183.937 33.3828 183.539C33.8984 183.14 34.3047 182.652 34.6016 182.074C34.9062 181.496 35.0586 180.836 35.0586 180.094C35.0586 179.351 34.9062 178.691 34.6016 178.113C34.3047 177.543 33.8984 177.055 33.3828 176.648C32.8672 176.25 32.2812 175.949 31.625 175.746C30.9687 175.543 30.2812 175.441 29.5625 175.441ZM41 190.517L23 190.517L23 189.579L41 189.579L41 190.517ZM41 196.37L23 196.37L23 195.432L41 195.432L41 196.37ZM23 212.669L23 208.626L23.8672 208.649L23.8672 212.669C23.8672 213.895 24.1523 214.974 24.7227 215.903C25.293 216.841 26.082 217.575 27.0898 218.106C28.1055 218.638 29.2734 218.903 30.5937 218.903L32.5039 218.903C33.4883 218.903 34.3906 218.751 35.2109 218.446C36.0312 218.142 36.7383 217.712 37.332 217.157C37.9258 216.61 38.3828 215.958 38.7031 215.2C39.0312 214.442 39.1953 213.614 39.1953 212.716L39.1953 208.556L40.0625 208.556L40.0625 212.716C40.0625 213.739 39.8789 214.685 39.5117 215.552C39.1523 216.427 38.6367 217.185 37.9648 217.825C37.3008 218.466 36.5 218.962 35.5625 219.313C34.6328 219.673 33.6016 219.853 32.4687 219.853L30.5937 219.853C29.4609 219.853 28.4258 219.673 27.4883 219.313C26.5586 218.962 25.7578 218.462 25.0859 217.813C24.4219 217.173 23.9062 216.415 23.5391 215.54C23.1797 214.673 23 213.716 23 212.669ZM40.0625 208.919L23 208.919L23 207.97L40.0625 207.97L40.0625 208.919ZM29.1172 223.198L29.5625 223.198C30.4922 223.198 31.3437 223.33 32.1172 223.596C32.8906 223.869 33.5586 224.252 34.1211 224.744C34.6914 225.237 35.1328 225.823 35.4453 226.502C35.7578 227.19 35.9141 227.951 35.9141 228.787C35.9141 229.623 35.7578 230.385 35.4453 231.073C35.1328 231.76 34.6914 232.35 34.1211 232.842C33.5586 233.342 32.8906 233.725 32.1172 233.99C31.3437 234.256 30.4922 234.389 29.5625 234.389L29.1172 234.389C28.1875 234.389 27.3359 234.256 26.5625 233.99C25.7891 233.725 25.1172 233.346 24.5469 232.854C23.9844 232.362 23.5469 231.772 23.2344 231.084C22.9219 230.405 22.7656 229.647 22.7656 228.811C22.7656 227.967 22.9219 227.201 23.2344 226.514C23.5469 225.834 23.9844 225.244 24.5469 224.744C25.1172 224.252 25.7891 223.869 26.5625 223.596C27.3359 223.33 28.1875 223.198 29.1172 223.198ZM29.5625 224.135L29.1172 224.135C28.3828 224.135 27.6836 224.237 27.0195 224.44C26.3633 224.651 25.7773 224.955 25.2617 225.354C24.7539 225.752 24.3516 226.24 24.0547 226.819C23.7656 227.397 23.6211 228.061 23.6211 228.811C23.6211 229.545 23.7656 230.201 24.0547 230.78C24.3516 231.358 24.7539 231.842 25.2617 232.233C25.7773 232.631 26.3633 232.932 27.0195 233.135C27.6836 233.346 28.3828 233.451 29.1172 233.451L29.5625 233.451C30.2812 233.451 30.9687 233.346 31.625 233.135C32.2812 232.932 32.8672 232.631 33.3828 232.233C33.8984 231.834 34.3047 231.346 34.6016 230.768C34.9062 230.19 35.0586 229.53 35.0586 228.787C35.0586 228.045 34.9062 227.385 34.6016 226.807C34.3047 226.237 33.8984 225.748 33.3828 225.342C32.8672 224.944 32.2812 224.643 31.625 224.44C30.9687 224.237 30.2812 224.135 29.5625 224.135ZM26.3867 241.835L35.6797 244.753L35.6797 245.492L32.7383 244.718L23 241.589L23 240.839L26.3867 241.835ZM35.6797 238.062L26.375 240.687L23 241.484L23 240.734L35.6797 237.054L35.6797 238.062ZM26.3867 249.71L35.6797 252.3L35.6797 253.32L23 249.628L23 248.878L26.3867 249.71ZM35.6797 245.621L26.4219 248.527L23 249.523L23 248.773L32.7383 245.597L35.6797 244.871L35.6797 245.621ZM32.9727 257.907L23 257.907L23 256.981L35.6797 256.981L35.6797 257.895L32.9727 257.907ZM30.3125 257.731L30.8516 257.274C31.5234 257.345 32.1641 257.509 32.7734 257.766C33.3828 258.032 33.9219 258.38 34.3906 258.809C34.8594 259.247 35.2305 259.755 35.5039 260.333C35.7773 260.919 35.9141 261.563 35.9141 262.266C35.9141 262.899 35.8242 263.466 35.6445 263.966C35.4727 264.466 35.1992 264.887 34.8242 265.231C34.4492 265.583 33.9648 265.848 33.3711 266.028C32.7852 266.208 32.0703 266.298 31.2266 266.298L23 266.298L23 265.372L31.2266 265.372C32.2266 265.372 33 265.235 33.5469 264.962C34.1016 264.688 34.4922 264.305 34.7187 263.813C34.9453 263.329 35.0586 262.762 35.0586 262.114C35.0586 261.364 34.8906 260.716 34.5547 260.169C34.2266 259.63 33.8086 259.184 33.3008 258.833C32.8008 258.481 32.2812 258.212 31.7422 258.024C31.2031 257.845 30.7266 257.747 30.3125 257.731Z" fill="white"/>
<path d="M28.6465 407.354C28.8417 407.549 29.1583 407.549 29.3536 407.354L32.5355 404.172C32.7308 403.976 32.7308 403.66 32.5355 403.464C32.3403 403.269 32.0237 403.269 31.8284 403.464L29 406.293L26.1716 403.464C25.9763 403.269 25.6597 403.269 25.4645 403.464C25.2692 403.66 25.2692 403.976 25.4645 404.172L28.6465 407.354ZM28.5 295L28.5 407L29.5 407L29.5 295L28.5 295Z" fill="white"/>
<path d="M29 475L29 504" stroke="white"/>
<path d="M29 0L29 112" stroke="white"/>
<path d="M29 504L-6.18398e-07 504" stroke="white"/>
</svg>
