<svg width="75" height="462" viewBox="0 0 75 462" fill="none" xmlns="http://www.w3.org/2000/svg">
<path d="M31 271.5L31 278.062L29.2344 278.062L29.2344 271.5C29.2344 270.177 28.7656 269.052 27.8281 268.125C26.8906 267.187 25.7604 266.719 24.4375 266.719C23.6771 266.719 23.0156 266.964 22.4531 267.453C21.8802 267.943 21.3646 268.583 20.9062 269.375C20.4479 270.156 20 270.995 19.5625 271.891C18.6875 273.682 17.8802 275.042 17.1406 275.969C15.9948 277.365 14.6562 278.062 13.125 278.062C11.3542 278.062 9.79687 277.422 8.45312 276.141C7.17187 274.797 6.53125 273.25 6.53125 271.5L6.53125 270.609L8.29687 270.609L8.29687 271.5C8.29687 272.781 8.76562 273.911 9.70312 274.891C10.6823 275.818 11.8125 276.281 13.0937 276.281C13.8542 276.281 14.5208 276.036 15.0937 275.547C15.6562 275.057 16.1667 274.422 16.625 273.641C17.0833 272.849 17.5312 272.005 17.9687 271.109C18.8437 269.318 19.651 267.958 20.3906 267.031C21.5365 265.635 22.8854 264.937 24.4375 264.937C25.6458 264.937 26.75 265.234 27.75 265.828C28.7396 266.422 29.5312 267.214 30.125 268.203C30.7083 269.193 31 270.292 31 271.5ZM31 249.719L8.29687 249.719L8.29687 261.062L6.53125 261.062L6.53125 247.937L31 247.937L31 249.719ZM29.2344 230.937L31 230.937L31 244.062L6.53125 244.062L6.53125 230.937L8.29687 230.937L8.29687 242.281L29.2344 242.281L29.2344 230.937ZM6.53125 220.5C6.53125 219.292 6.82812 218.193 7.42187 217.203C8.00521 216.214 8.79687 215.422 9.79687 214.828C10.7865 214.234 11.8854 213.937 13.0937 213.937C14.3021 213.937 15.401 214.234 16.3906 214.828C17.3802 215.422 18.1719 216.214 18.7656 217.203C19.3594 218.193 19.6562 219.292 19.6562 220.5L19.6562 225.281L31 225.281L31 227.062L17.875 227.062L17.875 220.5C17.875 219.177 17.4115 218.052 16.4844 217.125C15.5469 216.187 14.4167 215.719 13.0937 215.719C11.7708 215.719 10.6406 216.187 9.70312 217.125C8.76562 218.052 8.29687 219.177 8.29687 220.5L8.29687 227.062L6.53125 227.062L6.53125 220.5ZM18.7656 183.203C19.349 182.214 20.1406 181.422 21.1406 180.828C22.1302 180.234 23.2292 179.937 24.4375 179.937C25.6458 179.937 26.75 180.234 27.75 180.828C28.7396 181.422 29.5312 182.214 30.125 183.203C30.7083 184.193 31 185.292 31 186.5C31 187.708 30.7083 188.807 30.125 189.797C29.5312 190.786 28.7396 191.578 27.75 192.172C26.75 192.766 25.6458 193.062 24.4375 193.062L23.5469 193.062L23.5469 191.281L24.4375 191.281C25.7604 191.281 26.8906 190.818 27.8281 189.891C28.7656 188.953 29.2344 187.823 29.2344 186.5C29.2344 185.177 28.7656 184.052 27.8281 183.125C26.8906 182.187 25.7604 181.719 24.4375 181.719C23.1146 181.719 21.9896 182.187 21.0625 183.125C20.125 184.052 19.6562 185.177 19.6562 186.5L17.875 186.5C17.875 185.177 17.4115 184.052 16.4844 183.125C15.5469 182.187 14.4167 181.719 13.0937 181.719C11.7708 181.719 10.6406 182.187 9.70312 183.125C8.76562 184.052 8.29687 185.177 8.29687 186.5C8.29687 187.781 8.76562 188.911 9.70312 189.891L10.3281 190.516L9.07812 191.766L8.45312 191.141C7.17187 189.797 6.53125 188.25 6.53125 186.5C6.53125 185.292 6.82812 184.193 7.42187 183.203C8.0052 182.214 8.79687 181.422 9.79687 180.828C10.7865 180.234 11.8854 179.937 13.0937 179.937C14.3021 179.937 15.4062 180.234 16.4062 180.828C17.3958 181.422 18.1823 182.214 18.7656 183.203Z" fill="white"/>
<path opacity="0.5" d="M14 9V7.5H12.5V9H14ZM70.6603 9L62 0.339746L53.3397 9L62 17.6603L70.6603 9ZM15.5 143.5V9H12.5V143.5H15.5ZM14 10.5H62V7.5H14V10.5Z" fill="white"/>
<path opacity="0.5" d="M14 453V454.5H12.5V453H14ZM74.6603 453L66 461.66L57.3397 453L66 444.34L74.6603 453ZM15.5 307V453H12.5V307H15.5ZM14 451.5H66V454.5H14V451.5Z" fill="white"/>
</svg>
