<svg width="75" height="462" viewBox="0 0 75 462" fill="none" xmlns="http://www.w3.org/2000/svg">
<path d="M31 267.266L31 273.828L29.2344 273.828L29.2344 267.266C29.2344 265.943 28.7656 264.818 27.8281 263.891C26.8906 262.953 25.7604 262.484 24.4375 262.484C23.6771 262.484 23.0156 262.729 22.4531 263.219C21.8802 263.708 21.3646 264.349 20.9062 265.141C20.4479 265.922 20 266.76 19.5625 267.656C18.6875 269.448 17.8802 270.807 17.1406 271.734C15.9948 273.13 14.6562 273.828 13.125 273.828C11.3542 273.828 9.79687 273.187 8.45312 271.906C7.17187 270.562 6.53125 269.016 6.53125 267.266L6.53125 266.375L8.29687 266.375L8.29687 267.266C8.29687 268.547 8.76562 269.677 9.70312 270.656C10.6823 271.583 11.8125 272.047 13.0937 272.047C13.8542 272.047 14.5208 271.802 15.0937 271.312C15.6562 270.823 16.1667 270.187 16.625 269.406C17.0833 268.615 17.5312 267.771 17.9687 266.875C18.8437 265.083 19.651 263.724 20.3906 262.797C21.5365 261.401 22.8854 260.703 24.4375 260.703C25.6458 260.703 26.75 261 27.75 261.594C28.7396 262.187 29.5312 262.979 30.125 263.969C30.7083 264.958 31 266.057 31 267.266ZM31 245.484L8.29687 245.484L8.29687 256.828L6.53125 256.828L6.53125 243.703L31 243.703L31 245.484ZM29.2344 226.703L31 226.703L31 239.828L6.53125 239.828L6.53125 226.703L8.29687 226.703L8.29687 238.047L29.2344 238.047L29.2344 226.703ZM6.53125 216.266C6.53125 215.057 6.82812 213.958 7.42187 212.969C8.00521 211.979 8.79687 211.187 9.79687 210.594C10.7865 210 11.8854 209.703 13.0937 209.703C14.3021 209.703 15.401 210 16.3906 210.594C17.3802 211.187 18.1719 211.979 18.7656 212.969C19.3594 213.958 19.6562 215.057 19.6562 216.266L19.6562 221.047L31 221.047L31 222.828L17.875 222.828L17.875 216.266C17.875 214.943 17.4115 213.818 16.4844 212.891C15.5469 211.953 14.4167 211.484 13.0937 211.484C11.7708 211.484 10.6406 211.953 9.70312 212.891C8.76562 213.818 8.29687 214.943 8.29687 216.266L8.29687 222.828L6.53125 222.828L6.53125 216.266ZM31 185.109L31 186.891L6.53125 186.891L6.53125 185.109L31 185.109Z" fill="white"/>
<path opacity="0.5" d="M14 9V7.5H12.5V9H14ZM70.6603 9L62 0.339746L53.3397 9L62 17.6603L70.6603 9ZM15.5 143.5V9H12.5V143.5H15.5ZM14 10.5H62V7.5H14V10.5Z" fill="white"/>
<path opacity="0.5" d="M14 453V454.5H12.5V453H14ZM74.6603 453L66 461.66L57.3397 453L66 444.34L74.6603 453ZM15.5 307V453H12.5V307H15.5ZM14 451.5H66V454.5H14V451.5Z" fill="white"/>
</svg>
