<svg width="75" height="462" viewBox="0 0 75 462" fill="none" xmlns="http://www.w3.org/2000/svg">
<path d="M44 190.5L44 183.937L45.7656 183.937L45.7656 190.5C45.7656 191.823 46.2344 192.948 47.1719 193.875C48.1094 194.812 49.2396 195.281 50.5625 195.281C51.3229 195.281 51.9844 195.036 52.5469 194.547C53.1198 194.057 53.6354 193.417 54.0937 192.625C54.5521 191.844 55 191.005 55.4375 190.109C56.3125 188.318 57.1198 186.958 57.8594 186.031C59.0052 184.635 60.3437 183.937 61.875 183.937C63.6458 183.937 65.2031 184.578 66.5469 185.859C67.8281 187.203 68.4687 188.75 68.4687 190.5L68.4687 191.391L66.7031 191.391L66.7031 190.5C66.7031 189.219 66.2344 188.089 65.2969 187.109C64.3177 186.182 63.1875 185.719 61.9062 185.719C61.1458 185.719 60.4792 185.964 59.9062 186.453C59.3437 186.943 58.8333 187.578 58.375 188.359C57.9167 189.151 57.4687 189.995 57.0312 190.891C56.1562 192.682 55.349 194.042 54.6094 194.969C53.4635 196.365 52.1146 197.062 50.5625 197.062C49.3542 197.062 48.25 196.766 47.25 196.172C46.2604 195.578 45.4687 194.786 44.875 193.797C44.2917 192.807 44 191.708 44 190.5ZM44 212.281L66.7031 212.281L66.7031 200.937L68.4687 200.937L68.4687 214.062L44 214.062L44 212.281ZM45.7656 231.062L44 231.062L44 217.937L68.4687 217.937L68.4687 231.062L66.7031 231.062L66.7031 219.719L45.7656 219.719L45.7656 231.062ZM68.4687 241.5C68.4687 242.708 68.1719 243.807 67.5781 244.797C66.9948 245.786 66.2031 246.578 65.2031 247.172C64.2135 247.766 63.1146 248.062 61.9062 248.062C60.6979 248.062 59.599 247.766 58.6094 247.172C57.6198 246.578 56.8281 245.786 56.2344 244.797C55.6406 243.807 55.3437 242.708 55.3437 241.5L55.3437 236.719L44 236.719L44 234.937L57.125 234.937L57.125 241.5C57.125 242.823 57.5885 243.948 58.5156 244.875C59.4531 245.812 60.5833 246.281 61.9062 246.281C63.2292 246.281 64.3594 245.812 65.2969 244.875C66.2344 243.948 66.7031 242.823 66.7031 241.5L66.7031 234.937L68.4687 234.937L68.4687 241.5ZM44 270.422L44.9844 268.937L62.1719 280.281C63.4635 280.187 64.5417 279.687 65.4062 278.781C66.2708 277.875 66.7031 276.781 66.7031 275.5C66.7031 274.177 66.2344 273.047 65.2969 272.109C64.3594 271.182 63.2292 270.719 61.9062 270.719C60.625 270.719 59.4948 271.182 58.5156 272.109L57.8906 272.734L56.6406 271.484L57.2656 270.859C58.6094 269.578 60.1562 268.937 61.9062 268.937C63.1146 268.937 64.2135 269.234 65.2031 269.828C66.2031 270.422 66.9948 271.214 67.5781 272.203C68.1719 273.193 68.4687 274.292 68.4687 275.5C68.4687 276.708 68.1719 277.807 67.5781 278.797C66.9948 279.786 66.2031 280.578 65.2031 281.172C64.2135 281.766 63.1146 282.062 61.9062 282.062L61.6406 282.062L44 270.422Z" fill="white"/>
<path opacity="0.5" d="M61 453L61 454.5L62.5 454.5L62.5 453L61 453ZM4.33974 453L13 461.66L21.6603 453L13 444.34L4.33974 453ZM59.5 318.5L59.5 453L62.5 453L62.5 318.5L59.5 318.5ZM61 451.5L13 451.5L13 454.5L61 454.5L61 451.5Z" fill="white"/>
<path opacity="0.5" d="M61 9L61 7.5L62.5 7.5L62.5 9L61 9ZM0.339745 8.99999L9 0.339741L17.6603 9L9 17.6602L0.339745 8.99999ZM59.5 155L59.5 9L62.5 9L62.5 155L59.5 155ZM61 10.5L9 10.5L9 7.5L61 7.5L61 10.5Z" fill="white"/>
</svg>
