<svg width="36" height="30" viewBox="0 0 36 30" fill="none" xmlns="http://www.w3.org/2000/svg">
<path d="M35 1.01569C33.52 2.06973 31.8814 2.8759 30.1473 3.40316C29.2165 2.32257 27.9795 1.55668 26.6036 1.20907C25.2277 0.861458 23.7792 0.948898 22.4541 1.45956C21.129 1.97023 19.9912 2.87948 19.1946 4.06434C18.398 5.24921 17.981 6.65252 18 8.08447V9.64491C15.2841 9.71602 12.5929 9.10783 10.1661 7.87451C7.73933 6.64119 5.65231 4.82103 4.09091 2.57613C4.09091 2.57613 -2.09091 16.6201 11.8182 22.8618C8.63536 25.0433 4.84379 26.1371 1 25.9827C14.9091 33.7849 31.9091 25.9827 31.9091 8.03766C31.9077 7.60301 31.8663 7.16943 31.7855 6.7425C33.3627 5.17191 34.4758 3.18893 35 1.01569V1.01569Z" stroke="white" stroke-width="2" stroke-linecap="round" stroke-linejoin="round"/>
</svg>
