<svg width="277" height="606" viewBox="0 0 277 606" fill="none" xmlns="http://www.w3.org/2000/svg">
<rect width="277" height="606" rx="13" fill="#00FF85"/>
<path d="M87.5527 51.1816V102.598L101.264 80.4492L119.457 117.803L114.975 120L100.736 90.7324L82.543 120V51.1816H87.5527ZM114.447 228V196.096H82.543V159.182H87.5527V191.086H119.457V228H114.447ZM103.505 336H98.4951V267.182H103.505V336ZM114.447 444V380.147H82.543V375.182H119.457V444H114.447ZM119.457 547.034V552H82.543V483.182H119.457V488.147H87.5527V547.034H119.457Z" fill="white"/>
<path d="M87.5527 51.1816H92.5527V46.1816H87.5527V51.1816ZM87.5527 102.598H82.5527V120.174L91.8041 105.229L87.5527 102.598ZM101.264 80.4492L105.759 78.2598L101.787 70.1048L97.0123 77.8174L101.264 80.4492ZM119.457 117.803L121.658 122.292L126.136 120.097L123.952 115.613L119.457 117.803ZM114.975 120L110.478 122.187L112.672 126.697L117.175 124.49L114.975 120ZM100.736 90.7324L105.233 88.5451L101.271 80.4017L96.4899 88.0928L100.736 90.7324ZM82.543 120H77.543V137.514L86.7894 122.64L82.543 120ZM82.543 51.1816V46.1816H77.543V51.1816H82.543ZM82.5527 51.1816V102.598H92.5527V51.1816H82.5527ZM91.8041 105.229L105.515 83.081L97.0123 77.8174L83.3014 99.9659L91.8041 105.229ZM96.7685 82.6386L114.962 119.992L123.952 115.613L105.759 78.2598L96.7685 82.6386ZM117.256 113.313L112.774 115.51L117.175 124.49L121.658 122.292L117.256 113.313ZM119.471 117.813L105.233 88.5451L96.2402 92.9198L110.478 122.187L119.471 117.813ZM96.4899 88.0928L78.2965 117.36L86.7894 122.64L104.983 93.3721L96.4899 88.0928ZM87.543 120V51.1816H77.543V120H87.543ZM82.543 56.1816H87.5527V46.1816H82.543V56.1816ZM114.447 228H109.447V233H114.447V228ZM114.447 196.096H119.447V191.096H114.447V196.096ZM82.543 196.096H77.543V201.096H82.543V196.096ZM82.543 159.182V154.182H77.543V159.182H82.543ZM87.5527 159.182H92.5527V154.182H87.5527V159.182ZM87.5527 191.086H82.5527V196.086H87.5527V191.086ZM119.457 191.086H124.457V186.086H119.457V191.086ZM119.457 228V233H124.457V228H119.457ZM119.447 228V196.096H109.447V228H119.447ZM114.447 191.096H82.543V201.096H114.447V191.096ZM87.543 196.096V159.182H77.543V196.096H87.543ZM82.543 164.182H87.5527V154.182H82.543V164.182ZM82.5527 159.182V191.086H92.5527V159.182H82.5527ZM87.5527 196.086H119.457V186.086H87.5527V196.086ZM114.457 191.086V228H124.457V191.086H114.457ZM119.457 223H114.447V233H119.457V223ZM103.505 336V341H108.505V336H103.505ZM98.4951 336H93.4951V341H98.4951V336ZM98.4951 267.182V262.182H93.4951V267.182H98.4951ZM103.505 267.182H108.505V262.182H103.505V267.182ZM103.505 331H98.4951V341H103.505V331ZM103.495 336V267.182H93.4951V336H103.495ZM98.4951 272.182H103.505V262.182H98.4951V272.182ZM98.5049 267.182V336H108.505V267.182H98.5049ZM114.447 444H109.447V449H114.447V444ZM114.447 380.147H119.447V375.147H114.447V380.147ZM82.543 380.147H77.543V385.147H82.543V380.147ZM82.543 375.182V370.182H77.543V375.182H82.543ZM119.457 375.182H124.457V370.182H119.457V375.182ZM119.457 444V449H124.457V444H119.457ZM119.447 444V380.147H109.447V444H119.447ZM114.447 375.147H82.543V385.147H114.447V375.147ZM87.543 380.147V375.182H77.543V380.147H87.543ZM82.543 380.182H119.457V370.182H82.543V380.182ZM114.457 375.182V444H124.457V375.182H114.457ZM119.457 439H114.447V449H119.457V439ZM119.457 547.034H124.457V542.034H119.457V547.034ZM119.457 552V557H124.457V552H119.457ZM82.543 552H77.543V557H82.543V552ZM82.543 483.182V478.182H77.543V483.182H82.543ZM119.457 483.182H124.457V478.182H119.457V483.182ZM119.457 488.147V493.147H124.457V488.147H119.457ZM87.5527 488.147V483.147H82.5527V488.147H87.5527ZM87.5527 547.034H82.5527V552.034H87.5527V547.034ZM114.457 547.034V552H124.457V547.034H114.457ZM119.457 547H82.543V557H119.457V547ZM87.543 552V483.182H77.543V552H87.543ZM82.543 488.182H119.457V478.182H82.543V488.182ZM114.457 483.182V488.147H124.457V483.182H114.457ZM119.457 483.147H87.5527V493.147H119.457V483.147ZM82.5527 488.147V547.034H92.5527V488.147H82.5527ZM87.5527 552.034H119.457V542.034H87.5527V552.034Z" fill="white"/>
<path d="M176 51.1816C179.398 51.1816 182.489 52.0166 185.272 53.6865C188.056 55.3271 190.282 57.5537 191.952 60.3662C193.622 63.1494 194.457 66.2402 194.457 69.6387C194.457 73.0371 193.622 76.1279 191.952 78.9111C190.282 81.6943 188.056 83.9209 185.272 85.5908C182.489 87.2607 179.398 88.0957 176 88.0957H162.553V120H157.543V83.0859H176C179.721 83.0859 182.885 81.7822 185.492 79.1748C188.129 76.5381 189.447 73.3594 189.447 69.6387C189.447 65.918 188.129 62.7393 185.492 60.1025C182.885 57.4658 179.721 56.1475 176 56.1475H157.543V51.1816H176ZM176 159.182L199.906 228H194.633L176 174.387L157.367 228H152.094L176 159.182ZM176 267.182C179.398 267.182 182.489 268.017 185.272 269.687C188.056 271.327 190.282 273.554 191.952 276.366C193.622 279.149 194.457 282.24 194.457 285.639C194.457 289.037 193.622 292.128 191.952 294.911C190.282 297.694 188.056 299.921 185.272 301.591C182.489 303.261 179.398 304.096 176 304.096H162.553V336H157.543V299.086H176C179.721 299.086 182.885 297.782 185.492 295.175C188.129 292.538 189.447 289.359 189.447 285.639C189.447 281.918 188.129 278.739 185.492 276.103C182.885 273.466 179.721 272.147 176 272.147H157.543V267.182H176ZM194.457 439.034V444H157.543V375.182H194.457V380.147H162.553V439.034H194.457ZM157.543 517.591V515.086H176C179.721 515.086 182.885 513.782 185.492 511.175C188.129 508.538 189.447 505.359 189.447 501.639C189.447 497.918 188.129 494.739 185.492 492.103C182.885 489.466 179.721 488.147 176 488.147H157.543V483.182H176C179.398 483.182 182.489 484.017 185.272 485.687C188.056 487.327 190.282 489.554 191.952 492.366C193.622 495.149 194.457 498.24 194.457 501.639C194.457 505.037 193.622 508.128 191.952 510.911C190.282 513.694 188.056 515.921 185.272 517.591C182.489 519.261 179.398 520.096 176 520.096H166.903L194.457 548.528L190.854 552L159.96 520.096L157.543 517.591Z" fill="white"/>
<path d="M185.272 53.6865L182.7 57.974L182.717 57.984L182.733 57.9939L185.272 53.6865ZM191.952 60.3662L187.653 62.9189L187.659 62.9288L187.665 62.9387L191.952 60.3662ZM162.553 88.0957V83.0957H157.553V88.0957H162.553ZM162.553 120V125H167.553V120H162.553ZM157.543 120H152.543V125H157.543V120ZM157.543 83.0859V78.0859H152.543V83.0859H157.543ZM185.492 60.1025L181.937 63.6183L181.947 63.6282L181.957 63.6381L185.492 60.1025ZM157.543 56.1475H152.543V61.1475H157.543V56.1475ZM157.543 51.1816V46.1816H152.543V51.1816H157.543ZM176 56.1816C178.537 56.1816 180.731 56.7927 182.7 57.974L187.845 49.3991C184.247 47.2405 180.26 46.1816 176 46.1816V56.1816ZM182.733 57.9939C184.782 59.2016 186.407 60.8207 187.653 62.9189L196.251 57.8135C194.157 54.2867 191.329 51.4527 187.812 49.3792L182.733 57.9939ZM187.665 62.9387C188.846 64.9075 189.457 67.1019 189.457 69.6387H199.457C199.457 65.3786 198.398 61.3913 196.24 57.7937L187.665 62.9387ZM189.457 69.6387C189.457 72.1754 188.846 74.3699 187.665 76.3387L196.24 81.4836C198.398 77.886 199.457 73.8988 199.457 69.6387H189.457ZM187.665 76.3387C186.417 78.4181 184.779 80.0557 182.7 81.3034L187.845 89.8783C191.332 87.7861 194.147 84.9706 196.24 81.4836L187.665 76.3387ZM182.7 81.3034C180.731 82.4846 178.537 83.0957 176 83.0957V93.0957C180.26 93.0957 184.247 92.0368 187.845 89.8783L182.7 81.3034ZM176 83.0957H162.553V93.0957H176V83.0957ZM157.553 88.0957V120H167.553V88.0957H157.553ZM162.553 115H157.543V125H162.553V115ZM162.543 120V83.0859H152.543V120H162.543ZM157.543 88.0859H176V78.0859H157.543V88.0859ZM176 88.0859C181.033 88.0859 185.473 86.2649 189.028 82.7103L181.957 75.6393C180.296 77.2995 178.408 78.0859 176 78.0859V88.0859ZM189.028 82.7103C192.6 79.1383 194.447 74.6887 194.447 69.6387H184.447C184.447 72.03 183.658 73.9379 181.957 75.6393L189.028 82.7103ZM194.447 69.6387C194.447 64.5886 192.6 60.1391 189.028 56.567L181.957 63.6381C183.658 65.3394 184.447 67.2473 184.447 69.6387H194.447ZM189.047 56.5868C185.497 52.9967 181.051 51.1475 176 51.1475V61.1475C178.39 61.1475 180.272 61.9349 181.937 63.6183L189.047 56.5868ZM176 51.1475H157.543V61.1475H176V51.1475ZM162.543 56.1475V51.1816H152.543V56.1475H162.543ZM157.543 56.1816H176V46.1816H157.543V56.1816ZM176 159.182L180.723 157.541L176 143.945L171.277 157.541L176 159.182ZM199.906 228V233H206.936L204.629 226.359L199.906 228ZM194.633 228L189.91 229.641L191.077 233H194.633V228ZM176 174.387L180.723 172.745L176 159.156L171.277 172.745L176 174.387ZM157.367 228V233H160.923L162.09 229.641L157.367 228ZM152.094 228L147.371 226.359L145.064 233H152.094V228ZM171.277 160.822L195.183 229.641L204.629 226.359L180.723 157.541L171.277 160.822ZM199.906 223H194.633V233H199.906V223ZM199.356 226.359L180.723 172.745L171.277 176.028L189.91 229.641L199.356 226.359ZM171.277 172.745L152.644 226.359L162.09 229.641L180.723 176.028L171.277 172.745ZM157.367 223H152.094V233H157.367V223ZM156.817 229.641L180.723 160.822L171.277 157.541L147.371 226.359L156.817 229.641ZM185.272 269.687L182.7 273.974L182.717 273.984L182.733 273.994L185.272 269.687ZM191.952 276.366L187.653 278.919L187.659 278.929L187.665 278.939L191.952 276.366ZM162.553 304.096V299.096H157.553V304.096H162.553ZM162.553 336V341H167.553V336H162.553ZM157.543 336H152.543V341H157.543V336ZM157.543 299.086V294.086H152.543V299.086H157.543ZM185.492 276.103L181.937 279.618L181.947 279.628L181.957 279.638L185.492 276.103ZM157.543 272.147H152.543V277.147H157.543V272.147ZM157.543 267.182V262.182H152.543V267.182H157.543ZM176 272.182C178.537 272.182 180.731 272.793 182.7 273.974L187.845 265.399C184.247 263.24 180.26 262.182 176 262.182V272.182ZM182.733 273.994C184.782 275.202 186.407 276.821 187.653 278.919L196.251 273.814C194.157 270.287 191.329 267.453 187.812 265.379L182.733 273.994ZM187.665 278.939C188.846 280.907 189.457 283.102 189.457 285.639H199.457C199.457 281.379 198.398 277.391 196.24 273.794L187.665 278.939ZM189.457 285.639C189.457 288.175 188.846 290.37 187.665 292.339L196.24 297.484C198.398 293.886 199.457 289.899 199.457 285.639H189.457ZM187.665 292.339C186.417 294.418 184.779 296.056 182.7 297.303L187.845 305.878C191.332 303.786 194.147 300.971 196.24 297.484L187.665 292.339ZM182.7 297.303C180.731 298.485 178.537 299.096 176 299.096V309.096C180.26 309.096 184.247 308.037 187.845 305.878L182.7 297.303ZM176 299.096H162.553V309.096H176V299.096ZM157.553 304.096V336H167.553V304.096H157.553ZM162.553 331H157.543V341H162.553V331ZM162.543 336V299.086H152.543V336H162.543ZM157.543 304.086H176V294.086H157.543V304.086ZM176 304.086C181.033 304.086 185.473 302.265 189.028 298.71L181.957 291.639C180.296 293.3 178.408 294.086 176 294.086V304.086ZM189.028 298.71C192.6 295.138 194.447 290.689 194.447 285.639H184.447C184.447 288.03 183.658 289.938 181.957 291.639L189.028 298.71ZM194.447 285.639C194.447 280.589 192.6 276.139 189.028 272.567L181.957 279.638C183.658 281.339 184.447 283.247 184.447 285.639H194.447ZM189.047 272.587C185.497 268.997 181.051 267.147 176 267.147V277.147C178.39 277.147 180.272 277.935 181.937 279.618L189.047 272.587ZM176 267.147H157.543V277.147H176V267.147ZM162.543 272.147V267.182H152.543V272.147H162.543ZM157.543 272.182H176V262.182H157.543V272.182ZM194.457 439.034H199.457V434.034H194.457V439.034ZM194.457 444V449H199.457V444H194.457ZM157.543 444H152.543V449H157.543V444ZM157.543 375.182V370.182H152.543V375.182H157.543ZM194.457 375.182H199.457V370.182H194.457V375.182ZM194.457 380.147V385.147H199.457V380.147H194.457ZM162.553 380.147V375.147H157.553V380.147H162.553ZM162.553 439.034H157.553V444.034H162.553V439.034ZM189.457 439.034V444H199.457V439.034H189.457ZM194.457 439H157.543V449H194.457V439ZM162.543 444V375.182H152.543V444H162.543ZM157.543 380.182H194.457V370.182H157.543V380.182ZM189.457 375.182V380.147H199.457V375.182H189.457ZM194.457 375.147H162.553V385.147H194.457V375.147ZM157.553 380.147V439.034H167.553V380.147H157.553ZM162.553 444.034H194.457V434.034H162.553V444.034ZM157.543 517.591H152.543V519.61L153.945 521.063L157.543 517.591ZM157.543 515.086V510.086H152.543V515.086H157.543ZM185.492 492.103L181.937 495.618L181.947 495.628L181.957 495.638L185.492 492.103ZM157.543 488.147H152.543V493.147H157.543V488.147ZM157.543 483.182V478.182H152.543V483.182H157.543ZM185.272 485.687L182.7 489.974L182.717 489.984L182.733 489.994L185.272 485.687ZM191.952 492.366L187.653 494.919L187.659 494.929L187.665 494.939L191.952 492.366ZM166.903 520.096V515.096H155.095L163.313 523.575L166.903 520.096ZM194.457 548.528L197.926 552.129L201.537 548.65L198.048 545.049L194.457 548.528ZM190.854 552L187.262 555.478L190.731 559.061L194.323 555.601L190.854 552ZM159.96 520.096L156.362 523.568L156.368 523.574L159.96 520.096ZM162.543 517.591V515.086H152.543V517.591H162.543ZM157.543 520.086H176V510.086H157.543V520.086ZM176 520.086C181.033 520.086 185.473 518.265 189.028 514.71L181.957 507.639C180.296 509.3 178.408 510.086 176 510.086V520.086ZM189.028 514.71C192.6 511.138 194.447 506.689 194.447 501.639H184.447C184.447 504.03 183.658 505.938 181.957 507.639L189.028 514.71ZM194.447 501.639C194.447 496.589 192.6 492.139 189.028 488.567L181.957 495.638C183.658 497.339 184.447 499.247 184.447 501.639H194.447ZM189.047 488.587C185.497 484.997 181.051 483.147 176 483.147V493.147C178.39 493.147 180.272 493.935 181.937 495.618L189.047 488.587ZM176 483.147H157.543V493.147H176V483.147ZM162.543 488.147V483.182H152.543V488.147H162.543ZM157.543 488.182H176V478.182H157.543V488.182ZM176 488.182C178.537 488.182 180.731 488.793 182.7 489.974L187.845 481.399C184.247 479.24 180.26 478.182 176 478.182V488.182ZM182.733 489.994C184.782 491.202 186.407 492.821 187.653 494.919L196.251 489.814C194.157 486.287 191.329 483.453 187.812 481.379L182.733 489.994ZM187.665 494.939C188.846 496.907 189.457 499.102 189.457 501.639H199.457C199.457 497.379 198.398 493.391 196.24 489.794L187.665 494.939ZM189.457 501.639C189.457 504.175 188.846 506.37 187.665 508.339L196.24 513.484C198.398 509.886 199.457 505.899 199.457 501.639H189.457ZM187.665 508.339C186.417 510.418 184.779 512.056 182.7 513.303L187.845 521.878C191.332 519.786 194.147 516.971 196.24 513.484L187.665 508.339ZM182.7 513.303C180.731 514.485 178.537 515.096 176 515.096V525.096C180.26 525.096 184.247 524.037 187.845 521.878L182.7 513.303ZM176 515.096H166.903V525.096H176V515.096ZM163.313 523.575L190.866 552.008L198.048 545.049L170.494 516.616L163.313 523.575ZM190.988 544.928L187.384 548.399L194.323 555.601L197.926 552.129L190.988 544.928ZM194.445 548.522L163.552 516.618L156.368 523.574L187.262 555.478L194.445 548.522ZM163.558 516.624L161.141 514.119L153.945 521.063L156.362 523.568L163.558 516.624Z" fill="white"/>
<path d="M255 595.66L263.66 587L255 578.34L246.34 587L255 595.66ZM253.5 489L253.5 587L256.5 587L256.5 489L253.5 489Z" fill="white"/>
<path d="M197.34 587L206 595.66L214.66 587L206 578.34L197.34 587ZM255 585.5L206 585.5L206 588.5L255 588.5L255 585.5Z" fill="white"/>
<path d="M255 595.66L263.66 587L255 578.34L246.34 587L255 595.66ZM253.5 489L253.5 587L256.5 587L256.5 489L253.5 489Z" fill="white"/>
<path d="M197.34 587L206 595.66L214.66 587L206 578.34L197.34 587ZM255 585.5L206 585.5L206 588.5L255 588.5L255 585.5Z" fill="white"/>
<path d="M19 13.3397L10.3398 22L19 30.6603L27.6603 22L19 13.3397ZM20.5 120L20.5 22L17.5 22L17.5 120L20.5 120Z" fill="white"/>
</svg>
